<mxfile host="65bd71144e">
    <diagram id="XhyU7xlqHxBA_4XB7dNm" name="Account">
        <mxGraphModel dx="1277" dy="446" grid="0" gridSize="10" guides="1" tooltips="1" connect="1" arrows="1" fold="1" page="0" pageScale="1" pageWidth="827" pageHeight="1169" math="0" shadow="0">
            <root>
                <mxCell id="0"/>
                <mxCell id="1" parent="0"/>
                <mxCell id="K6E6BVQt66KrU3n13Uxa-6" value="Account" style="swimlane;fontStyle=1;align=center;verticalAlign=top;childLayout=stackLayout;horizontal=1;startSize=27;horizontalStack=0;resizeParent=1;resizeParentMax=0;resizeLast=0;collapsible=1;marginBottom=0;" parent="1" vertex="1">
                    <mxGeometry x="290.5" y="40" width="319.5" height="158" as="geometry"/>
                </mxCell>
                <mxCell id="K6E6BVQt66KrU3n13Uxa-7" value=" id: string&#10; name: string&#10; email: string&#10; password: string&#10; admin: boolean&#10;createdAt: string&#10;updatedAt: string&#10;authenticatedAt: string" style="text;strokeColor=none;fillColor=none;align=left;verticalAlign=top;spacingLeft=4;spacingRight=4;overflow=hidden;rotatable=0;points=[[0,0.5],[1,0.5]];portConstraint=eastwest;" parent="K6E6BVQt66KrU3n13Uxa-6" vertex="1">
                    <mxGeometry y="27" width="319.5" height="123" as="geometry"/>
                </mxCell>
                <mxCell id="K6E6BVQt66KrU3n13Uxa-8" value="" style="line;strokeWidth=1;fillColor=none;align=left;verticalAlign=middle;spacingTop=-1;spacingLeft=3;spacingRight=3;rotatable=0;labelPosition=right;points=[];portConstraint=eastwest;" parent="K6E6BVQt66KrU3n13Uxa-6" vertex="1">
                    <mxGeometry y="150" width="319.5" height="8" as="geometry"/>
                </mxCell>
                <mxCell id="K6E6BVQt66KrU3n13Uxa-19" style="edgeStyle=orthogonalEdgeStyle;rounded=0;orthogonalLoop=1;jettySize=auto;html=1;entryX=0;entryY=0.5;entryDx=0;entryDy=0;endArrow=block;endFill=0;" parent="1" source="K6E6BVQt66KrU3n13Uxa-11" target="K6E6BVQt66KrU3n13Uxa-7" edge="1">
                    <mxGeometry relative="1" as="geometry"/>
                </mxCell>
                <mxCell id="K6E6BVQt66KrU3n13Uxa-11" value="Client" style="swimlane;fontStyle=1;align=center;verticalAlign=top;childLayout=stackLayout;horizontal=1;startSize=25;horizontalStack=0;resizeParent=1;resizeParentMax=0;resizeLast=0;collapsible=1;marginBottom=0;" parent="1" vertex="1">
                    <mxGeometry x="-67" y="200" width="326" height="74" as="geometry"/>
                </mxCell>
                <mxCell id="K6E6BVQt66KrU3n13Uxa-12" value="photo: string&#10;birthDay: string" style="text;strokeColor=none;fillColor=none;align=left;verticalAlign=top;spacingLeft=4;spacingRight=4;overflow=hidden;rotatable=0;points=[[0,0.5],[1,0.5]];portConstraint=eastwest;" parent="K6E6BVQt66KrU3n13Uxa-11" vertex="1">
                    <mxGeometry y="25" width="326" height="41" as="geometry"/>
                </mxCell>
                <mxCell id="K6E6BVQt66KrU3n13Uxa-13" value="" style="line;strokeWidth=1;fillColor=none;align=left;verticalAlign=middle;spacingTop=-1;spacingLeft=3;spacingRight=3;rotatable=0;labelPosition=right;points=[];portConstraint=eastwest;" parent="K6E6BVQt66KrU3n13Uxa-11" vertex="1">
                    <mxGeometry y="66" width="326" height="8" as="geometry"/>
                </mxCell>
                <mxCell id="K6E6BVQt66KrU3n13Uxa-23" style="edgeStyle=orthogonalEdgeStyle;rounded=0;orthogonalLoop=1;jettySize=auto;html=1;entryX=1;entryY=0.5;entryDx=0;entryDy=0;endArrow=block;endFill=0;" parent="1" source="K6E6BVQt66KrU3n13Uxa-20" target="K6E6BVQt66KrU3n13Uxa-7" edge="1">
                    <mxGeometry relative="1" as="geometry"/>
                </mxCell>
                <mxCell id="K6E6BVQt66KrU3n13Uxa-20" value="Admin" style="swimlane;fontStyle=1;align=center;verticalAlign=top;childLayout=stackLayout;horizontal=1;startSize=27;horizontalStack=0;resizeParent=1;resizeParentMax=0;resizeLast=0;collapsible=1;marginBottom=0;" parent="1" vertex="1">
                    <mxGeometry x="555" y="240" width="160" height="117" as="geometry"/>
                </mxCell>
                <mxCell id="K6E6BVQt66KrU3n13Uxa-22" value="" style="line;strokeWidth=1;fillColor=none;align=left;verticalAlign=middle;spacingTop=-1;spacingLeft=3;spacingRight=3;rotatable=0;labelPosition=right;points=[];portConstraint=eastwest;" parent="K6E6BVQt66KrU3n13Uxa-20" vertex="1">
                    <mxGeometry y="27" width="160" height="23" as="geometry"/>
                </mxCell>
                <mxCell id="7" value="addProduct()&#10;updateProuct()&#10;removeProduct()&#10;getProduct()" style="text;strokeColor=none;fillColor=none;align=left;verticalAlign=top;spacingLeft=4;spacingRight=4;overflow=hidden;rotatable=0;points=[[0,0.5],[1,0.5]];portConstraint=eastwest;" parent="K6E6BVQt66KrU3n13Uxa-20" vertex="1">
                    <mxGeometry y="50" width="160" height="67" as="geometry"/>
                </mxCell>
                <mxCell id="K6E6BVQt66KrU3n13Uxa-24" value="Address" style="swimlane;fontStyle=1;align=center;verticalAlign=top;childLayout=stackLayout;horizontal=1;startSize=26;horizontalStack=0;resizeParent=1;resizeParentMax=0;resizeLast=0;collapsible=1;marginBottom=0;" parent="1" vertex="1">
                    <mxGeometry x="16" y="380" width="160" height="128" as="geometry"/>
                </mxCell>
                <mxCell id="K6E6BVQt66KrU3n13Uxa-25" value="  street: string&#10;  postalCode: number&#10;  district: string&#10;  city: string&#10;  country: string&#10;  complement: string" style="text;strokeColor=none;fillColor=none;align=left;verticalAlign=top;spacingLeft=4;spacingRight=4;overflow=hidden;rotatable=0;points=[[0,0.5],[1,0.5]];portConstraint=eastwest;" parent="K6E6BVQt66KrU3n13Uxa-24" vertex="1">
                    <mxGeometry y="26" width="160" height="94" as="geometry"/>
                </mxCell>
                <mxCell id="K6E6BVQt66KrU3n13Uxa-26" value="" style="line;strokeWidth=1;fillColor=none;align=left;verticalAlign=middle;spacingTop=-1;spacingLeft=3;spacingRight=3;rotatable=0;labelPosition=right;points=[];portConstraint=eastwest;" parent="K6E6BVQt66KrU3n13Uxa-24" vertex="1">
                    <mxGeometry y="120" width="160" height="8" as="geometry"/>
                </mxCell>
                <mxCell id="CMzWh5FOwvmuOhsNkX_Z-6" style="edgeStyle=orthogonalEdgeStyle;rounded=0;orthogonalLoop=1;jettySize=auto;html=1;entryX=0.5;entryY=0;entryDx=0;entryDy=0;endArrow=none;endFill=0;exitX=0.5;exitY=1;exitDx=0;exitDy=0;" parent="1" source="K6E6BVQt66KrU3n13Uxa-11" target="K6E6BVQt66KrU3n13Uxa-24" edge="1">
                    <mxGeometry relative="1" as="geometry">
                        <mxPoint x="96" y="333" as="sourcePoint"/>
                    </mxGeometry>
                </mxCell>
                <mxCell id="CMzWh5FOwvmuOhsNkX_Z-8" value="1" style="text;html=1;align=center;verticalAlign=middle;resizable=0;points=[];autosize=1;strokeColor=none;fillColor=none;" parent="1" vertex="1">
                    <mxGeometry x="96" y="351" width="25" height="26" as="geometry"/>
                </mxCell>
                <mxCell id="CMzWh5FOwvmuOhsNkX_Z-9" value="1" style="text;html=1;align=center;verticalAlign=middle;resizable=0;points=[];autosize=1;strokeColor=none;fillColor=none;" parent="1" vertex="1">
                    <mxGeometry x="96" y="275" width="25" height="26" as="geometry"/>
                </mxCell>
            </root>
        </mxGraphModel>
    </diagram>
</mxfile>